<svg width="46.000000" height="47.000000" viewBox="0 0 46 47" fill="none" xmlns="http://www.w3.org/2000/svg" xmlns:xlink="http://www.w3.org/1999/xlink">
	<desc>
			Created with Pixso.
	</desc>
	<defs/>
	<path id="Check Area" d="M3 3.88C7.38 3.88 11.78 4.08 16.18 4.08C21 4 24 4 28.12 4.08C29.45 4.19 36.17 4.26 37.5 4.26C38.13 4.26 41.56 4.5 42.17 4.26C42.95 3.94 43 4.71 43 5.27C42.62 7.8 41.96 13.48 41.96 16.03C41.96 19.16 41.22 25.59 41 31.5C40.82 35.92 40.88 41.79 41.05 42.48C41.24 43.26 39.11 42.92 39.11 42.92C39.11 42.92 31.59 41.74 24.5 41.54C21.93 41.47 14.43 41.54 14.43 41.54L7.36 41.34C7.36 41.34 6.12 41.28 5.48 41.24M5.42 41.21C5.44 39.34 6.65 31.66 6.65 31.66C6.65 31.66 6.48 19.86 6.5 16.5C6.52 12.11 6.46 10.72 6.21 6.61C6.16 5.79 6.1 5.21 6.1 4.5C6.1 4.21 5.77 3.15 6.1 3" stroke="#DCDCDC" stroke-opacity="1.000000" stroke-width="6.000000"/>
</svg>
